<?xml version="1.0" encoding="UTF-8" standalone="no"?>
<svg
   xmlns:dc="http://purl.org/dc/elements/1.1/"
   xmlns:cc="http://creativecommons.org/ns#"
   xmlns:rdf="http://www.w3.org/1999/02/22-rdf-syntax-ns#"
   xmlns:svg="http://www.w3.org/2000/svg"
   xmlns="http://www.w3.org/2000/svg"
   xmlns:sodipodi="http://sodipodi.sourceforge.net/DTD/sodipodi-0.dtd"
   xmlns:inkscape="http://www.inkscape.org/namespaces/inkscape"
   viewBox="0 0 744.71198 207.09599"
   height="207.09599"
   width="744.71198"
   xml:space="preserve"
   id="svg2"
   version="1.1"
   sodipodi:docname="chop-ri-logo.svg"
   inkscape:version="0.92.2 5c3e80d, 2017-08-06"><sodipodi:namedview
     pagecolor="#ffffff"
     bordercolor="#666666"
     borderopacity="1"
     objecttolerance="10"
     gridtolerance="10"
     guidetolerance="10"
     inkscape:pageopacity="0"
     inkscape:pageshadow="2"
     inkscape:window-width="1285"
     inkscape:window-height="765"
     id="namedview59"
     showgrid="false"
     fit-margin-left="20"
     fit-margin-top="0"
     fit-margin-right="0"
     fit-margin-bottom="0"
     inkscape:zoom="0.44707744"
     inkscape:cx="382.35333"
     inkscape:cy="103.54666"
     inkscape:window-x="344"
     inkscape:window-y="105"
     inkscape:window-maximized="0"
     inkscape:current-layer="svg2" /><metadata
     id="metadata8"><rdf:RDF><cc:Work
         rdf:about=""><dc:format>image/svg+xml</dc:format><dc:type
           rdf:resource="http://purl.org/dc/dcmitype/StillImage" /><dc:title></dc:title></cc:Work></rdf:RDF></metadata><defs
     id="defs6" /><g
     transform="matrix(1.3333333,0,0,-1.3333333,20,207.09599)"
     id="g10"><g
       transform="scale(0.1)"
       id="g12"><path
         id="path14"
         style="fill:#5db9e8;fill-opacity:1;fill-rule:nonzero;stroke:none"
         d="m 582.645,554.918 h 145.617 v 281.66 C 715.613,825.457 634.934,755.141 582.645,728.934 V 554.918"
         inkscape:connector-curvature="0" /><path
         id="path16"
         style="fill:#5db9e8;fill-opacity:1;fill-rule:nonzero;stroke:none"
         d="M 1070.95,1290.24 V 1036.2 c -53.28,25.14 -112.731,39.24 -175.458,39.24 -59.5,0 -115.679,-13.56 -167.211,-35.33 v 250.13 H 582.629 V 933.406 c -7.973,-6.359 -12.856,-10.285 -12.856,-10.285 -44.043,-31.914 -98.027,-50.93 -156.429,-50.93 -147.625,0 -267.723,120.098 -267.723,267.689 0,147.62 120.098,267.72 267.723,267.72 52.715,0 101.676,-15.61 143.164,-42.04 v 161.9 c -44.645,16.58 -92.832,25.76 -143.164,25.76 C 185.43,1553.22 0,1367.81 0,1139.88 0,911.949 185.43,726.535 413.344,726.535 c 55.351,0 101.676,9.922 156.429,30.852 4.043,1.535 8.368,3.543 12.856,5.824 52.316,26.187 133.019,96.484 145.652,107.641 1.078,0.941 1.864,1.613 1.864,1.613 45.554,35.902 102.964,57.324 165.347,57.324 67.11,0 128.408,-24.918 175.458,-65.875 V 554.891 h 145.62 v 735.349 h -145.62"
         inkscape:connector-curvature="0" /><path
         id="path18"
         style="fill:#5db9e8;fill-opacity:1;fill-rule:nonzero;stroke:none"
         d="m 272.195,1110.07 c 1.375,5.83 0.465,12.06 0.106,18.02 -0.653,12.95 -2.211,25.79 -3.496,38.68 -3.102,31.44 -4.711,63.49 13.054,91.36 3.961,6.24 8.661,12.03 14.004,17.12 0.309,0.32 0.668,0.63 1.047,0.96 20.293,20.7 49.668,32.35 83.25,34.31 10.633,0.63 26.535,-0.59 43.242,-5.43 14.036,-3.79 26.395,-8.75 40.493,-15.38 5.554,-2.64 11.347,-6.99 16.335,-10.64 5.059,-3.69 9.477,-8.21 12.989,-13.37 8.59,-12.59 12.937,-30.35 6.308,-44.75 -0.379,-0.8 -1.543,-3.22 -2.004,-4 -0.203,-0.31 -2.019,-3.43 -2.019,-3.43 0,0 -0.293,6.94 -0.774,8.11 -0.671,-2.75 -3.207,-7.51 -5.863,-8.58 -0.258,-0.1 -0.5,-0.2 -0.703,-0.3 -0.637,-3.07 -1.371,-5.59 -2.105,-7.37 -2.246,-5.42 -4.954,-7.83 -6.121,-14.12 -0.071,-0.88 -0.168,-1.72 -0.235,-2.59 5.758,-0.43 6.356,3.75 6.289,1.68 -0.039,-1.78 -4.887,-4.11 -6.5,-4.8 0.172,-9.03 9.34,-20.85 11.262,-22.9 3.976,-3.99 7.863,-7.19 9.613,-9.75 4.528,-6.42 -7.199,-12.88 -9.183,-15.58 1.882,-4.35 3.086,-4.85 3.754,-7.27 1.007,-3.5 -7.665,-5.44 -5.797,-8.15 1.871,-2.72 2.879,-6.97 0.429,-9.05 -7.66,-5.4 -6.527,-6.94 -4.281,-18.56 2.383,-12.25 -4.527,-16.4 -13.164,-18.32 -8.195,-1.8 -30.402,5.3 -37.496,1.01 -0.074,-0.07 -0.348,-0.23 -0.348,-0.23 -16.074,-12.36 -28.961,-38.48 12.926,-98.395 3.223,-4.628 14.906,-18.593 7.336,-18.593 -31.48,0 -82.91,67.558 -156.605,23.511 -9.407,-5.621 32.421,53.587 38.847,84.827 -5.617,0.7 -11.613,3.29 -19.976,9.76 0.836,-3.79 3.097,-6.38 6.629,-8.92 -0.411,0.31 -2.809,-0.23 -3.395,-0.3 -1.133,-0.07 -2.246,-0.16 -3.34,-0.19 -8.738,-0.28 -17.957,1.44 -25.086,6.7 -3.89,2.91 -6.808,7.06 -8.281,11.65 -0.785,2.37 -1.898,8.43 -1.832,11.59 -0.941,-2.88 -2.742,-5.5 -5.535,-7.34 -3.375,-2.21 -8.641,-3.65 -13.059,-2.69 5.156,5.83 7.473,14.11 9.285,21.71"
         inkscape:connector-curvature="0" /><path
         id="path20"
         style="fill:#1f518a;fill-opacity:1;fill-rule:nonzero;stroke:none"
         d="m 1673.47,1060.77 c 5.66,10.01 12.17,17.41 26.11,17.41 13.89,0 29.14,-11.76 29.14,-27.83 0,-5.22 -0.48,-9.17 -3.08,-16.11 -18.68,-43.939 -65.23,-69.15 -113.94,-69.15 -73.93,0 -124.82,53.92 -130.48,123.51 -1.75,23.07 -1.75,47.01 0,69.15 5.66,69.6 56.55,124 130.48,124 48.71,0 95.26,-25.23 113.94,-69.18 2.6,-6.95 3.08,-10.88 3.08,-16.07 0,-16.11 -15.25,-27.86 -29.14,-27.86 -13.94,0 -20.9,8.7 -26.11,17.39 -12.62,23.94 -34.79,38.3 -61.77,38.3 -42.19,0 -68.27,-31.31 -71.32,-73.95 -1.3,-18.25 -1.3,-37.41 0,-55.66 3.05,-43.07 29.13,-72.23 71.32,-72.23 26.98,0 49.15,14.34 61.77,38.28"
         inkscape:connector-curvature="0" /><path
         id="path22"
         style="fill:#1f518a;fill-opacity:1;fill-rule:nonzero;stroke:none"
         d="m 1843.58,1189.1 c 9.59,8.7 31.77,16.95 54.8,16.95 55.22,0 87.88,-33.07 87.88,-95.25 V 999.008 c 0,-17.379 -12.2,-30.899 -29.61,-30.899 -16.11,0 -28.69,13.52 -28.69,30.899 v 108.722 c 0,26.54 -15.25,41.35 -39.14,41.35 -18.3,0 -36.12,-8.28 -45.24,-18.29 V 998.168 c 0,-16.539 -12.17,-30.059 -28.73,-30.059 -16.1,0 -29.57,13.52 -29.57,30.059 v 254.422 c 0,16.99 12.64,30 29.16,30 16.08,0 29.14,-13.01 29.14,-30 v -63.49"
         inkscape:connector-curvature="0" /><path
         id="path24"
         style="fill:#1f518a;fill-opacity:1;fill-rule:nonzero;stroke:none"
         d="M 2106.33,1174.73 V 998.168 c 0,-16.539 -12.61,-30.047 -29.13,-30.047 -15.67,0 -29.14,13.508 -29.14,30.047 v 176.562 c 0,16.96 12.14,30.01 29.14,30.01 16.07,0 29.13,-13.05 29.13,-30.01 m -29.13,53.95 c -17.86,0 -30.89,14.78 -30.89,31.73 0,17.41 13.03,30.89 30.89,30.89 16.93,0 30.88,-13.48 30.88,-30.89 0,-16.95 -13.95,-31.73 -30.88,-31.73"
         inkscape:connector-curvature="0" /><path
         id="path26"
         style="fill:#1f518a;fill-opacity:1;fill-rule:nonzero;stroke:none"
         d="M 2229.45,1251.73 V 998.152 c 0,-16.539 -12.2,-30.011 -29.14,-30.011 -15.7,0 -29.16,13.472 -29.16,30.011 v 253.578 c 0,16.95 12.61,30.43 29.16,30.43 16.08,0 29.14,-13.48 29.14,-30.43"
         inkscape:connector-curvature="0" /><path
         id="path28"
         style="fill:#1f518a;fill-opacity:1;fill-rule:nonzero;stroke:none"
         d="m 2390.37,1022.5 c 15.25,0 35.24,7.41 42.19,13.47 v 102.66 c -7.36,4.78 -26.52,11.77 -45.65,11.77 -27.83,0 -40.89,-15.7 -42.64,-42.19 -0.86,-10.04 -0.86,-30.47 0,-42.23 1.75,-28.26 17.82,-43.48 46.1,-43.48 m -9.12,183.56 c 17.38,0 38.26,-5.22 51.31,-10.88 v 57.41 c 0,16.97 13.06,30.01 29.13,30.01 16.53,0 29.17,-13.04 29.17,-30.01 v -238.35 c 0,-9.58 -2.63,-15.213 -10.45,-20.459 -12.17,-8.656 -46.96,-26.941 -91.34,-26.941 -60.46,0 -98.3,37.41 -103.07,90.47 -1.3,15.2 -1.3,44.33 0,60.01 4.77,53.92 37.84,88.74 95.25,88.74"
         inkscape:connector-curvature="0" /><path
         id="path30"
         style="fill:#1f518a;fill-opacity:1;fill-rule:nonzero;stroke:none"
         d="m 2692.27,1172.56 c 0,-11.72 -9.12,-27.41 -27.42,-27.41 -10.01,0 -19.54,4.34 -32.6,3.93 -14.36,-0.46 -22.66,-8.28 -22.66,-28.29 V 997.703 c 0,-16.535 -12.57,-29.594 -29.13,-29.594 -16.11,0 -29.1,13.059 -29.1,29.594 v 133.967 c 0,45.24 26.53,74.38 76.54,74.38 14.36,0 28.72,-1.31 37.36,-3.48 17.89,-4.77 27.01,-15.65 27.01,-30.01"
         inkscape:connector-curvature="0" /><path
         id="path32"
         style="fill:#1f518a;fill-opacity:1;fill-rule:nonzero;stroke:none"
         d="m 2859.73,1106.01 c 3.06,0 4.81,1.75 4.81,5.23 1.29,26.53 -15.26,44.35 -43.5,44.35 -30.88,0 -46.13,-19.57 -46.13,-49.58 z m 60.91,-10.43 c 0,-16.99 -8.7,-29.17 -30.02,-29.17 h -115.71 v -4.3 c 0,-27.43 20.91,-42.23 50.07,-42.23 15.63,0 31.7,3.92 46.51,9.58 23.07,8.71 38.29,-6.96 38.29,-23.07 0,-8.238 -3.09,-17.359 -14.81,-24.351 -16.11,-9.543 -43.94,-15.234 -71.77,-15.234 -60.02,0 -100.46,37.875 -104.78,92.235 -1.34,16.96 -0.9,40.89 0,54.37 5.17,56.54 45.65,92.64 102.62,92.64 59.16,0 99.6,-39.57 99.6,-100.91 v -9.56"
         inkscape:connector-curvature="0" /><path
         id="path34"
         style="fill:#1f518a;fill-opacity:1;fill-rule:nonzero;stroke:none"
         d="m 3172.94,998.152 c 0,-16.539 -12.16,-30.011 -29.14,-30.011 -15.62,0 -29.13,13.472 -29.13,30.011 v 110.018 c 0,28.3 -19.57,40.9 -42.22,40.9 -17.35,0 -34.35,-5.23 -42.61,-10.43 V 998.152 c 0,-16.539 -12.17,-30.011 -29.13,-30.011 -15.63,0 -29.17,13.472 -29.17,30.011 v 162.668 c 0,10.85 3.08,16.08 10.49,21.3 13.46,9.59 45.65,23.94 92.19,23.94 65.24,0 98.72,-34.39 98.72,-95.28 V 998.152"
         inkscape:connector-curvature="0" /><path
         id="path36"
         style="fill:#1f518a;fill-opacity:1;fill-rule:nonzero;stroke:none"
         d="m 3270.83,1229.97 c 0,-16.08 -2.57,-35.65 -12.58,-52.18 -6.1,-10.46 -15.7,-17.41 -27.42,-17.41 -14.36,0 -24.37,11.31 -24.37,23.07 0,13.05 11.73,20.42 11.73,43.93 v 25.19 c 0,14.37 11.34,25.7 26.11,25.7 14.81,0 26.53,-11.33 26.53,-25.7 v -22.6"
         inkscape:connector-curvature="0" /><path
         id="path38"
         style="fill:#1f518a;fill-opacity:1;fill-rule:nonzero;stroke:none"
         d="m 3470.93,1042.52 c 0,-48.723 -40.45,-75.68 -90.9,-75.68 -40.88,0 -67.01,11.723 -83.08,25.226 -10.45,8.674 -13.47,25.204 -5.21,36.094 8.7,11.75 23.48,14.36 37.84,5.23 13.47,-8.71 31.29,-14.37 51.75,-14.37 22.59,0 33.08,8.26 33.08,20.02 0,9.58 -6.99,16.07 -25.26,20.46 -15.63,3.46 -15.22,3.02 -32.18,7.37 -35.66,9.12 -63.48,29.13 -63.48,66.54 0,46.97 37.83,72.65 88.73,72.65 27.39,0 55.67,-6.97 70.89,-19.59 12.61,-10.45 11.72,-28.27 2.6,-38.71 -8.7,-9.55 -23.48,-10.88 -37.83,-3.46 -11.32,5.64 -26.54,9.54 -37.85,9.54 -21.76,0 -30.88,-8.26 -30.88,-18.68 0,-9.15 6.51,-15.23 26.08,-19.58 l 30.89,-6.94 c 43.52,-10.46 64.81,-31.78 64.81,-66.12"
         inkscape:connector-curvature="0" /><path
         id="path40"
         style="fill:#1f518a;fill-opacity:1;fill-rule:nonzero;stroke:none"
         d="m 3629.31,1248.68 c 0,16.95 13.48,30.43 29.99,30.43 16.97,0 29.62,-13.48 29.62,-30.43 v -96.14 h 137.85 v 96.14 c 0,16.95 13.48,30.43 29.58,30.43 17.39,0 29.99,-13.48 29.99,-30.43 V 999.449 c 0,-16.945 -12.6,-30.879 -29.99,-30.879 -16.1,0 -29.58,14.348 -29.58,30.879 v 94.841 h -137.85 v -95.263 c 0,-17.398 -12.65,-30.457 -29.62,-30.457 -16.51,0 -29.99,13.934 -29.99,30.457 v 249.653"
         inkscape:connector-curvature="0" /><path
         id="path42"
         style="fill:#1f518a;fill-opacity:1;fill-rule:nonzero;stroke:none"
         d="m 4096.04,1108.19 c -1.3,24.78 -18.71,42.19 -46.1,42.19 -27.39,0 -44.35,-17.41 -46.55,-42.19 -0.86,-11.72 -0.86,-32.19 0,-43.49 2.2,-24.82 19.16,-42.21 46.55,-42.21 27.39,0 44.39,17.39 46.1,42.21 0.89,11.3 0.89,31.77 0,43.49 m -46.1,-141.385 c -56.97,0 -100.05,36.535 -104.4,88.305 -1.31,17.42 -1.31,44.82 0,62.2 4.35,52.2 47.43,88.74 104.4,88.74 57.41,0 99.61,-36.54 103.96,-88.74 1.3,-17.38 1.3,-44.35 0,-61.77 -4.35,-52.2 -46.55,-88.735 -103.96,-88.735"
         inkscape:connector-curvature="0" /><path
         id="path44"
         style="fill:#1f518a;fill-opacity:1;fill-rule:nonzero;stroke:none"
         d="m 4380.52,1042.52 c 0,-48.723 -40.44,-75.68 -90.9,-75.68 -40.88,0 -66.97,11.723 -83.07,25.226 -10.46,8.674 -13.48,25.204 -5.22,36.094 8.71,11.75 23.48,14.36 37.84,5.23 13.47,-8.71 31.29,-14.37 51.76,-14.37 22.62,0 33.08,8.26 33.08,20.02 0,9.58 -6.99,16.07 -25.24,20.46 -15.66,3.46 -15.24,3.02 -32.17,7.37 -35.69,9.12 -63.52,29.13 -63.52,66.54 0,46.97 37.84,72.65 88.74,72.65 27.42,0 55.67,-6.97 70.88,-19.59 12.62,-10.45 11.72,-28.27 2.61,-38.71 -8.71,-9.55 -23.48,-10.88 -37.84,-3.46 -11.31,5.64 -26.53,9.54 -37.85,9.54 -21.75,0 -30.87,-8.26 -30.87,-18.68 0,-9.15 6.54,-15.23 26.08,-19.58 l 30.88,-6.94 c 43.53,-10.46 64.81,-31.78 64.81,-66.12"
         inkscape:connector-curvature="0" /><path
         id="path46"
         style="fill:#1f518a;fill-opacity:1;fill-rule:nonzero;stroke:none"
         d="m 4528.46,1149.94 c -15.66,0 -35.65,-7.4 -43.05,-13.04 v -102.64 c 6.92,-4.8 25.63,-11.76 43.94,-11.76 29.13,0 42.16,15.24 44.35,41.77 0.89,10.43 0.89,30.43 0,42.19 -2.19,28.26 -17.42,43.48 -45.24,43.48 m 6.51,-183.1 c -19.16,0 -33.52,3.48 -49.56,10.883 v -64.836 c 0,-16.946 -13.06,-30.004 -29.14,-30.004 -16.55,0 -29.14,13.058 -29.14,30.004 V 1163 c 0,6.53 1.72,10.88 7.38,14.77 13.05,9.6 49.12,28.29 95.25,28.29 60.01,0 97.41,-36.98 102.21,-90.47 1.34,-15.23 1.34,-43.95 0,-59.6 -4.36,-53.91 -38.73,-89.15 -97,-89.15"
         inkscape:connector-curvature="0" /><path
         id="path48"
         style="fill:#1f518a;fill-opacity:1;fill-rule:nonzero;stroke:none"
         d="M 4748.57,1174.73 V 998.168 c 0,-16.539 -12.61,-30.047 -29.13,-30.047 -15.67,0 -29.13,13.508 -29.13,30.047 v 176.562 c 0,16.96 12.13,30.01 29.13,30.01 16.07,0 29.13,-13.05 29.13,-30.01 m -29.13,53.95 c -17.82,0 -30.88,14.78 -30.88,31.73 0,17.41 13.06,30.89 30.88,30.89 16.96,0 30.88,-13.48 30.88,-30.89 0,-16.95 -13.92,-31.73 -30.88,-31.73"
         inkscape:connector-curvature="0" /><path
         id="path50"
         style="fill:#1f518a;fill-opacity:1;fill-rule:nonzero;stroke:none"
         d="m 4889.52,966.824 c -53.96,0 -78.32,36.996 -78.32,85.706 v 171.8 c 0,16.95 12.64,30.44 29.13,30.44 16.1,0 29.17,-13.49 29.17,-30.44 v -29.58 h 54.35 c 14.37,0 26.98,-10.88 26.98,-26.11 0,-14.35 -12.61,-25.23 -26.98,-25.23 h -54.35 v -89.58 c 0,-20.87 9.11,-32.18 28.24,-32.18 9.6,0 19.19,2.6 27.01,4.78 22.17,5.22 36.08,-8.71 36.08,-24.78 0,-9.584 -4.79,-19.591 -18.26,-25.658 -15.22,-6.992 -36.54,-9.168 -53.05,-9.168"
         inkscape:connector-curvature="0" /><path
         id="path52"
         style="fill:#1f518a;fill-opacity:1;fill-rule:nonzero;stroke:none"
         d="m 5126.15,1027.71 v 39.14 c -14.78,4.36 -26.95,6.99 -43.5,6.99 -23.51,0 -37.87,-11.77 -37.87,-28.29 0,-19.12 15.25,-29.13 39.17,-29.13 23.93,0 37.43,8.24 42.2,11.29 m 56.1,-16.52 c 0,-10.01 -2.64,-15.237 -10.45,-20.424 -12.17,-8.278 -43.49,-23.942 -91.79,-23.942 -63.06,0 -91.71,35.236 -91.71,76.556 0,36.98 25.63,70.89 89.56,70.89 19.16,0 31.76,-2.6 48.29,-6.52 v 11.75 c 0,22.61 -10.9,33.9 -41.3,33.9 -15.26,0 -30.89,-3.89 -41.79,-7.37 -24.77,-7.82 -40,4.78 -40,22.61 0,10 4.36,20.46 19.13,26.54 12.17,5.23 37.39,10.87 63.96,10.87 61.32,0 96.1,-26.94 96.1,-88.3 v -106.56"
         inkscape:connector-curvature="0" /><path
         id="path54"
         style="fill:#1f518a;fill-opacity:1;fill-rule:nonzero;stroke:none"
         d="M 5300.16,1251.73 V 998.152 c 0,-16.539 -12.17,-30.011 -29.13,-30.011 -15.7,0 -29.17,13.472 -29.17,30.011 v 253.578 c 0,16.95 12.65,30.43 29.17,30.43 16.07,0 29.13,-13.48 29.13,-30.43"
         inkscape:connector-curvature="0" /><path
         id="path56"
         style="fill:#1f518a;fill-opacity:1;fill-rule:nonzero;stroke:none"
         d="m 1632.13,673.172 c -1.3,24.773 -18.71,42.191 -46.09,42.191 -27.39,0 -44.36,-17.418 -46.55,-42.191 -0.86,-11.719 -0.86,-32.188 0,-43.496 2.19,-24.817 19.16,-42.227 46.55,-42.227 27.38,0 44.38,17.41 46.09,42.227 0.89,11.308 0.89,31.777 0,43.496 m -46.09,-141.391 c -56.97,0 -100.05,36.535 -104.41,88.332 -1.3,17.414 -1.3,44.797 0,62.188 4.36,52.187 47.44,88.722 104.41,88.722 57.4,0 99.6,-36.535 103.95,-88.722 1.3,-17.391 1.3,-44.363 0,-61.778 -4.35,-52.207 -46.55,-88.742 -103.95,-88.742"
         inkscape:connector-curvature="0" /><path
         id="path58"
         style="fill:#1f518a;fill-opacity:1;fill-rule:nonzero;stroke:none"
         d="m 1761.35,771.043 c 0,52.645 30.03,80.906 77.43,80.906 15.66,0 33.49,-2.605 43.94,-5.652 14.36,-4.356 22.62,-13.492 22.62,-27.832 0,-13.063 -9.59,-25.246 -27.42,-25.246 -9.56,0 -20.01,3.886 -33.49,3.886 -15.66,0 -24.81,-9.539 -24.81,-28.242 v -9.129 h 50.45 c 14.36,0 26.57,-10.882 26.57,-26.105 0,-14.359 -12.21,-25.242 -26.57,-25.242 h -50.45 V 564 c 0,-17.41 -12.13,-30.918 -29.14,-30.918 -16.07,0 -29.13,13.508 -29.13,30.918 v 144.387 h -10.45 c -15.19,0 -26.94,10.883 -26.94,25.242 0,15.223 11.75,26.105 26.94,26.105 h 10.45 v 11.309"
         inkscape:connector-curvature="0" /><path
         id="path60"
         style="fill:#1f518a;fill-opacity:1;fill-rule:nonzero;stroke:none"
         d="m 2186.33,692.762 c 36.54,0 52.2,17.39 52.2,45.652 0,28.703 -16.52,45.672 -50.9,45.672 h -62.62 v -91.324 z m -61.32,-57.434 V 564.41 c 0,-16.512 -13.5,-30.851 -29.58,-30.851 -16.11,0 -29.99,14.339 -29.99,30.851 v 239.246 c 0,21.301 13.88,38.715 39.56,38.715 h 86.54 c 57.41,0 106.59,-38.285 106.59,-103.496 0,-65.703 -46.54,-103.547 -110.5,-103.547 h -62.62"
         inkscape:connector-curvature="0" /><path
         id="path62"
         style="fill:#1f518a;fill-opacity:1;fill-rule:nonzero;stroke:none"
         d="m 2402.54,754.074 c 9.59,8.707 31.77,16.949 54.8,16.949 55.25,0 87.88,-33.058 87.88,-95.246 V 564 c 0,-17.371 -12.16,-30.918 -29.58,-30.918 -16.1,0 -28.72,13.547 -28.72,30.918 v 108.723 c 0,26.531 -15.22,41.336 -39.14,41.336 -18.27,0 -36.09,-8.282 -45.24,-18.27 V 563.152 c 0,-16.523 -12.17,-30.07 -28.69,-30.07 -16.11,0 -29.58,13.547 -29.58,30.07 V 817.57 c 0,16.95 12.61,30.012 29.17,30.012 16.04,0 29.1,-13.062 29.1,-30.012 v -63.496"
         inkscape:connector-curvature="0" /><path
         id="path64"
         style="fill:#1f518a;fill-opacity:1;fill-rule:nonzero;stroke:none"
         d="M 2665.29,739.734 V 563.152 c 0,-16.523 -12.61,-30.07 -29.13,-30.07 -15.67,0 -29.13,13.547 -29.13,30.07 v 176.582 c 0,16.95 12.13,30.004 29.13,30.004 16.07,0 29.13,-13.054 29.13,-30.004 m -29.13,53.93 c -17.83,0 -30.88,14.789 -30.88,31.738 0,17.399 13.05,30.883 30.88,30.883 16.97,0 30.88,-13.484 30.88,-30.883 0,-16.949 -13.91,-31.738 -30.88,-31.738"
         inkscape:connector-curvature="0" /><path
         id="path66"
         style="fill:#1f518a;fill-opacity:1;fill-rule:nonzero;stroke:none"
         d="M 2788.4,816.715 V 563.113 c 0,-16.523 -12.16,-29.992 -29.13,-29.992 -15.7,0 -29.16,13.469 -29.16,29.992 v 253.602 c 0,16.949 12.64,30.449 29.16,30.449 16.08,0 29.13,-13.5 29.13,-30.449"
         inkscape:connector-curvature="0" /><path
         id="path68"
         style="fill:#1f518a;fill-opacity:1;fill-rule:nonzero;stroke:none"
         d="m 2978.5,592.723 v 39.109 c -14.77,4.356 -26.97,6.992 -43.5,6.992 -23.51,0 -37.87,-11.758 -37.87,-28.269 0,-19.133 15.25,-29.141 39.17,-29.141 23.93,0 37.44,8.223 42.2,11.309 m 56.1,-16.555 c 0,-9.969 -2.63,-15.215 -10.44,-20.43 -12.17,-8.25 -43.5,-23.918 -91.79,-23.918 -63.07,0 -91.73,35.239 -91.73,76.535 0,37.012 25.64,70.899 89.56,70.899 19.16,0 31.78,-2.586 48.3,-6.531 v 11.757 c 0,22.606 -10.9,33.915 -41.31,33.915 -15.24,0 -30.91,-3.887 -41.77,-7.372 -24.79,-7.832 -40,4.766 -40,22.606 0,9.992 4.35,20.465 19.12,26.527 12.16,5.231 37.4,10.887 63.96,10.887 61.28,0 96.1,-26.957 96.1,-88.313 V 576.168"
         inkscape:connector-curvature="0" /><path
         id="path70"
         style="fill:#1f518a;fill-opacity:1;fill-rule:nonzero;stroke:none"
         d="m 3192.1,587.477 c 15.22,0 35.24,7.414 42.16,13.476 v 102.668 c -7.37,4.785 -26.53,11.758 -45.65,11.758 -27.83,0 -40.89,-15.684 -42.65,-42.18 -0.85,-10.039 -0.85,-30.469 0,-42.226 1.76,-28.243 17.83,-43.496 46.14,-43.496 m -9.15,183.566 c 17.38,0 38.25,-5.227 51.31,-10.887 v 57.43 c 0,16.953 13.06,30.008 29.16,30.008 16.53,0 29.14,-13.055 29.14,-30.008 V 579.227 c 0,-9.571 -2.6,-15.227 -10.46,-20.43 -12.16,-8.707 -46.95,-26.977 -91.3,-26.977 -60.5,0 -98.33,37.395 -103.1,90.481 -1.31,15.187 -1.31,44.328 0,60.019 4.77,53.918 37.84,88.723 95.25,88.723"
         inkscape:connector-curvature="0" /><path
         id="path72"
         style="fill:#1f518a;fill-opacity:1;fill-rule:nonzero;stroke:none"
         d="m 3491.35,671.012 c 3.09,0 4.81,1.75 4.81,5.207 1.34,26.543 -15.26,44.371 -43.5,44.371 -30.88,0 -46.13,-19.586 -46.13,-49.578 z m 60.91,-10.418 c 0,-17.004 -8.7,-29.211 -29.99,-29.211 h -115.74 v -4.317 c 0,-27.382 20.91,-42.226 50.08,-42.226 15.62,0 31.7,3.976 46.5,9.601 23.07,8.7 38.29,-6.925 38.29,-23.039 0,-8.25 -3.08,-17.41 -14.8,-24.363 -16.12,-9.559 -43.95,-15.258 -71.78,-15.258 -60.01,0 -100.46,37.914 -104.78,92.27 -1.33,16.933 -0.89,40.859 0,54.363 5.18,56.535 45.66,92.609 102.62,92.609 59.16,0 99.6,-39.55 99.6,-100.898 v -9.531"
         inkscape:connector-curvature="0" /><path
         id="path74"
         style="fill:#1f518a;fill-opacity:1;fill-rule:nonzero;stroke:none"
         d="M 3662.77,816.715 V 563.113 c 0,-16.523 -12.17,-29.992 -29.13,-29.992 -15.67,0 -29.17,13.469 -29.17,29.992 v 253.602 c 0,16.949 12.64,30.449 29.17,30.449 16.07,0 29.13,-13.5 29.13,-30.449"
         inkscape:connector-curvature="0" /><path
         id="path76"
         style="fill:#1f518a;fill-opacity:1;fill-rule:nonzero;stroke:none"
         d="m 3825.88,714.934 c -15.62,0 -35.64,-7.418 -43.04,-13.063 V 599.234 c 6.95,-4.793 25.63,-11.757 43.93,-11.757 29.14,0 42.2,15.253 44.36,41.789 0.89,10.418 0.89,30.429 0,42.156 -2.16,28.273 -17.41,43.512 -45.25,43.512 m 6.55,-183.114 c -19.16,0 -33.52,3.461 -49.59,10.86 v -64.809 c 0,-16.961 -13.07,-29.992 -29.14,-29.992 -16.52,0 -29.13,13.031 -29.13,29.992 v 250.106 c 0,6.546 1.71,10.882 7.37,14.789 13.06,9.582 49.15,28.297 95.24,28.297 60.02,0 97.45,-37.004 102.22,-90.489 1.3,-15.254 1.3,-43.945 0,-59.609 -4.36,-53.906 -38.7,-89.145 -96.97,-89.145"
         inkscape:connector-curvature="0" /><path
         id="path78"
         style="fill:#1f518a;fill-opacity:1;fill-rule:nonzero;stroke:none"
         d="m 4043.84,754.074 c 9.59,8.707 31.77,16.949 54.81,16.949 55.21,0 87.88,-33.058 87.88,-95.246 V 564 c 0,-17.371 -12.21,-30.918 -29.61,-30.918 -16.11,0 -28.69,13.547 -28.69,30.918 v 108.723 c 0,26.531 -15.26,41.336 -39.14,41.336 -18.31,0 -36.14,-8.282 -45.25,-18.27 V 563.152 c 0,-16.523 -12.17,-30.07 -28.72,-30.07 -16.11,0 -29.59,13.547 -29.59,30.07 V 817.57 c 0,16.95 12.66,30.012 29.17,30.012 16.09,0 29.14,-13.062 29.14,-30.012 v -63.496"
         inkscape:connector-curvature="0" /><path
         id="path80"
         style="fill:#1f518a;fill-opacity:1;fill-rule:nonzero;stroke:none"
         d="M 4306.6,739.734 V 563.152 c 0,-16.523 -12.62,-30.07 -29.14,-30.07 -15.67,0 -29.13,13.547 -29.13,30.07 v 176.582 c 0,16.95 12.12,30.004 29.13,30.004 16.08,0 29.14,-13.054 29.14,-30.004 m -29.14,53.93 c -17.86,0 -30.88,14.789 -30.88,31.738 0,17.399 13.02,30.883 30.88,30.883 16.93,0 30.88,-13.484 30.88,-30.883 0,-16.949 -13.95,-31.738 -30.88,-31.738"
         inkscape:connector-curvature="0" /><path
         id="path82"
         style="fill:#1f518a;fill-opacity:1;fill-rule:nonzero;stroke:none"
         d="m 4498.43,592.723 v 39.109 c -14.8,4.356 -26.97,6.992 -43.49,6.992 -23.52,0 -37.87,-11.758 -37.87,-28.269 0,-19.133 15.21,-29.141 39.17,-29.141 23.89,0 37.4,8.223 42.19,11.309 m 56.11,-16.555 c 0,-9.969 -2.64,-15.215 -10.45,-20.43 -12.21,-8.25 -43.5,-23.918 -91.79,-23.918 -63.07,0 -91.76,35.239 -91.76,76.535 0,37.012 25.68,70.899 89.56,70.899 19.2,0 31.78,-2.586 48.33,-6.531 v 11.757 c 0,22.606 -10.9,33.915 -41.34,33.915 -15.21,0 -30.87,-3.887 -41.74,-7.372 -24.78,-7.832 -40.03,4.766 -40.03,22.606 0,9.992 4.35,20.465 19.12,26.527 12.21,5.231 37.43,10.887 63.96,10.887 61.31,0 96.14,-26.957 96.14,-88.313 V 576.168"
         inkscape:connector-curvature="0" /><path
         id="path84"
         style="fill:#5db9e8;fill-opacity:1;fill-rule:nonzero;stroke:none"
         d="m 1595.86,134.41 c 31.23,0 42.11,13.68 42.11,35.102 0,22.457 -12.98,35.437 -40.36,35.437 h -52.64 V 134.41 Z M 1544.97,90.1914 V 27.3711 c 0,-13.3398 -10.88,-24.92188 -23.86,-24.92188 -12.99,0 -24.22,11.58208 -24.22,24.92188 V 220.738 c 0,17.203 11.23,31.242 31.94,31.242 h 71.94 c 45.98,0 85.64,-29.128 85.64,-81.781 0,-40.347 -20.71,-64.918 -45.63,-72.6404 l 45.27,-54.3984 c 8.43,-8.7696 8.08,-24.9102 -1.05,-33.69145 -10.53,-9.820313 -25.62,-9.46875 -34.74,0 l -55.81,69.49215 c -5.61,7.0079 -9.82,11.2305 -19.65,11.2305 h -29.83"
         inkscape:connector-curvature="0" /><path
         id="path86"
         style="fill:#5db9e8;fill-opacity:1;fill-rule:nonzero;stroke:none"
         d="m 1895.55,251.98 c 12.99,0 23.17,-9.82 23.17,-22.808 0,-12.293 -10.88,-23.172 -23.17,-23.172 h -102.47 v -55.449 h 98.26 c 11.94,0 21.76,-9.121 21.76,-21.75 0,-11.59 -10.18,-22.11 -21.76,-22.11 h -98.26 V 50.1797 h 103.17 c 12.29,0 23.17,-10.8789 23.17,-22.8086 0,-12.9922 -10.18,-23.16016 -23.17,-23.16016 H 1779.74 C 1757.28,4.21094 1745,20 1745,38.9492 V 217.59 c 0,18.601 12.28,34.39 34.74,34.39 h 115.81"
         inkscape:connector-curvature="0" /><path
         id="path88"
         style="fill:#5db9e8;fill-opacity:1;fill-rule:nonzero;stroke:none"
         d="m 2054.87,105.629 c -57.91,11.941 -84.23,33.34 -84.23,75.801 0,44.922 38.25,74.058 89.49,74.058 33.69,0 62.12,-7.718 76.51,-20 5.26,-4.558 8.42,-10.179 8.42,-17.898 0,-13.34 -10.17,-23.871 -22.81,-23.871 -5.97,0 -11.93,2.113 -17.55,4.91 -10.88,5.262 -25.96,9.832 -43.51,9.832 -30.54,0 -42.47,-12.281 -42.47,-27.031 0,-16.141 14.04,-22.461 49.83,-29.121 62.12,-11.579 89.5,-31.239 89.5,-76.1606 C 2158.05,32.9883 2123.66,0 2063.99,0 c -42.11,0 -68.78,11.582 -86.33,24.9102 -7.72,5.9687 -12.99,13.6914 -12.99,21.7617 0,14.039 10.88,24.5664 24.22,24.5664 4.91,0 10.53,-1.0586 17.9,-6.668 14.04,-10.1797 33.69,-17.5508 58.96,-17.5508 27.02,0 43.87,10.1797 43.87,27.3789 0,18.9532 -19.65,24.211 -54.75,31.2306"
         inkscape:connector-curvature="0" /><path
         id="path90"
         style="fill:#5db9e8;fill-opacity:1;fill-rule:nonzero;stroke:none"
         d="m 2360.53,251.98 c 12.99,0 23.16,-9.82 23.16,-22.808 0,-12.293 -10.88,-23.172 -23.16,-23.172 h -102.48 v -55.449 h 98.27 c 11.93,0 21.76,-9.121 21.76,-21.75 0,-11.59 -10.18,-22.11 -21.76,-22.11 h -98.27 V 50.1797 h 103.18 c 12.29,0 23.16,-10.8789 23.16,-22.8086 0,-12.9922 -10.17,-23.16016 -23.16,-23.16016 h -116.51 c -22.46,0 -34.75,15.78906 -34.75,34.73826 V 217.59 c 0,18.601 12.29,34.39 34.75,34.39 h 115.81"
         inkscape:connector-curvature="0" /><path
         id="path92"
         style="fill:#5db9e8;fill-opacity:1;fill-rule:nonzero;stroke:none"
         d="m 2500.19,117.922 h 68.79 l -28.43,83.867 c -0.7,2.461 -2.81,4.563 -5.61,4.563 -3.16,0 -5.27,-2.102 -5.97,-4.563 z m 83.53,-42.8322 h -97.92 l -19.3,-56.5 C 2461.59,6.32031 2447.55,0 2435.26,4.91016 2422.98,9.46875 2417.72,24.2109 2421.93,36.1406 l 66.68,185.3004 c 8.42,23.168 25.97,34.047 46.33,34.047 20.7,0 38.25,-10.879 46.67,-34.047 l 65.98,-185.3004 c 4.21,-11.582 -1.4,-26.32029 -13.34,-30.87888 -12.28,-4.910157 -27.02,1.05859 -31.23,13.32808 l -19.3,56.5"
         inkscape:connector-curvature="0" /><path
         id="path94"
         style="fill:#5db9e8;fill-opacity:1;fill-rule:nonzero;stroke:none"
         d="m 2792.87,134.41 c 31.23,0 42.11,13.68 42.11,35.102 0,22.457 -12.98,35.437 -40.36,35.437 h -52.64 V 134.41 Z M 2741.98,90.1914 V 27.3711 c 0,-13.3398 -10.88,-24.92188 -23.87,-24.92188 -12.98,0 -24.21,11.58208 -24.21,24.92188 V 220.738 c 0,17.203 11.23,31.242 31.93,31.242 h 71.95 c 45.97,0 85.63,-29.128 85.63,-81.781 0,-40.347 -20.71,-64.918 -45.62,-72.6404 l 45.27,-54.3984 c 8.42,-8.7696 8.07,-24.9102 -1.05,-33.69145 -10.53,-9.820313 -25.62,-9.46875 -34.75,0 l -55.8,69.49215 c -5.62,7.0079 -9.82,11.2305 -19.65,11.2305 h -29.83"
         inkscape:connector-curvature="0" /><path
         id="path96"
         style="fill:#5db9e8;fill-opacity:1;fill-rule:nonzero;stroke:none"
         d="m 3089.4,77.1992 c 4.56,8.0821 9.82,14.0391 21.05,14.0391 11.23,0 23.52,-9.4766 23.52,-22.457 0,-4.211 -0.35,-7.3711 -2.46,-12.9805 C 3116.42,20.3516 3078.87,0 3039.57,0 c -59.67,0 -100.73,43.5117 -105.29,99.6719 -1.4,18.5981 -1.4,37.8981 0,55.7971 4.56,56.152 45.62,100.019 105.29,100.019 39.3,0 76.85,-20.359 91.94,-55.808 2.11,-5.61 2.46,-8.758 2.46,-12.969 0,-12.992 -12.29,-22.461 -23.52,-22.461 -11.23,0 -16.84,7.012 -21.05,14.031 -10.18,19.309 -28.08,30.891 -49.83,30.891 -34.05,0 -55.1,-25.281 -57.56,-59.672 -1.06,-14.738 -1.06,-30.18 0,-44.918 2.46,-34.75 23.51,-58.2617 57.56,-58.2617 21.75,0 39.65,11.5781 49.83,30.8789"
         inkscape:connector-curvature="0" /><path
         id="path98"
         style="fill:#5db9e8;fill-opacity:1;fill-rule:nonzero;stroke:none"
         d="m 3186.95,228.82 c 0,13.692 10.88,24.571 24.22,24.571 13.68,0 23.85,-10.879 23.85,-24.571 v -77.558 h 111.26 v 77.558 c 0,13.692 10.88,24.571 23.86,24.571 14.04,0 24.22,-10.879 24.22,-24.571 V 27.7188 c 0,-13.6875 -10.18,-24.91802 -24.22,-24.91802 -12.98,0 -23.86,11.57812 -23.86,24.91802 V 104.23 H 3235.02 V 27.3711 c 0,-14.0391 -10.17,-24.57032 -23.85,-24.57032 -13.34,0 -24.22,11.23052 -24.22,24.57032 V 228.82"
         inkscape:connector-curvature="0" /><path
         id="path100"
         style="fill:#5db9e8;fill-opacity:1;fill-rule:nonzero;stroke:none"
         d="m 3571.21,228.82 c 0,13.692 11.23,24.571 24.21,24.571 13.69,0 23.86,-10.879 23.86,-24.571 V 27.7188 c 0,-13.6875 -10.17,-24.91802 -23.86,-24.91802 -13.34,0 -24.21,11.23052 -24.21,24.91802 V 228.82"
         inkscape:connector-curvature="0" /><path
         id="path102"
         style="fill:#5db9e8;fill-opacity:1;fill-rule:nonzero;stroke:none"
         d="m 3851.25,70.1797 h 0.71 c -0.71,23.1719 -1.06,34.7503 -1.06,55.4493 V 228.82 c 0,13.692 10.54,24.571 23.87,24.571 13.69,0 23.87,-10.879 23.87,-24.571 V 39.6602 c 0,-20.0118 -13.69,-36.85942 -34.75,-36.85942 -12.99,0 -25.97,5.6211 -35.1,21.41012 l -96.15,165.3011 h -0.7 c 0.7,-18.602 0.7,-41.422 0.7,-58.961 V 27.0195 c 0,-13.6875 -9.83,-24.91794 -23.51,-24.91794 -12.99,0 -24.22,11.57814 -24.22,24.91794 V 212.672 c 0,22.816 14.73,40.008 38.25,40.008 12.28,0 25.27,-4.91 34.39,-20.711 l 93.7,-161.7893"
         inkscape:connector-curvature="0" /><path
         id="path104"
         style="fill:#5db9e8;fill-opacity:1;fill-rule:nonzero;stroke:none"
         d="m 4043.22,105.629 c -57.91,11.941 -84.23,33.34 -84.23,75.801 0,44.922 38.25,74.058 89.49,74.058 33.69,0 62.12,-7.718 76.51,-20 5.27,-4.558 8.42,-10.179 8.42,-17.898 0,-13.34 -10.17,-23.871 -22.81,-23.871 -5.97,0 -11.93,2.113 -17.55,4.91 -10.88,5.262 -25.97,9.832 -43.51,9.832 -30.54,0 -42.46,-12.281 -42.46,-27.031 0,-16.141 14.03,-22.461 49.83,-29.121 62.12,-11.579 89.49,-31.239 89.49,-76.1606 C 4146.4,32.9883 4112.01,0 4052.34,0 c -42.11,0 -68.78,11.582 -86.33,24.9102 -7.72,5.9687 -12.99,13.6914 -12.99,21.7617 0,14.039 10.88,24.5664 24.22,24.5664 4.91,0 10.53,-1.0586 17.9,-6.668 14.03,-10.1797 33.69,-17.5508 58.96,-17.5508 27.02,0 43.86,10.1797 43.86,27.3789 0,18.9532 -19.64,24.211 -54.74,31.2306"
         inkscape:connector-curvature="0" /><path
         id="path106"
         style="fill:#5db9e8;fill-opacity:1;fill-rule:nonzero;stroke:none"
         d="M 4248.15,204.949 H 4192 c -13.69,0 -24.57,10.531 -24.57,23.512 0,13.699 10.88,23.519 24.57,23.519 h 160.38 c 13.69,0 24.57,-9.82 24.57,-23.519 0,-12.981 -11.58,-23.512 -24.57,-23.512 h -56.15 V 27.3711 c 0,-13.6914 -10.18,-24.57032 -23.51,-24.57032 -13.34,0 -24.57,11.23052 -24.57,24.57032 V 204.949"
         inkscape:connector-curvature="0" /><path
         id="path108"
         style="fill:#5db9e8;fill-opacity:1;fill-rule:nonzero;stroke:none"
         d="m 4419.05,228.82 c 0,13.692 11.23,24.571 24.22,24.571 13.68,0 23.86,-10.879 23.86,-24.571 V 27.7188 c 0,-13.6875 -10.18,-24.91802 -23.86,-24.91802 -13.34,0 -24.22,11.23052 -24.22,24.91802 V 228.82"
         inkscape:connector-curvature="0" /><path
         id="path110"
         style="fill:#5db9e8;fill-opacity:1;fill-rule:nonzero;stroke:none"
         d="m 4589.59,204.949 h -56.15 c -13.69,0 -24.57,10.531 -24.57,23.512 0,13.699 10.88,23.519 24.57,23.519 h 160.38 c 13.69,0 24.57,-9.82 24.57,-23.519 0,-12.981 -11.58,-23.512 -24.57,-23.512 h -56.15 V 27.3711 c 0,-13.6914 -10.17,-24.57032 -23.5,-24.57032 -13.34,0 -24.58,11.23052 -24.58,24.57032 V 204.949"
         inkscape:connector-curvature="0" /><path
         id="path112"
         style="fill:#5db9e8;fill-opacity:1;fill-rule:nonzero;stroke:none"
         d="M 4970.01,109.84 C 4970.01,44.5703 4924.39,0 4863.68,0 4803.31,0 4758.03,44.5703 4758.03,109.84 v 118.98 c 0,13.692 11.23,24.571 24.22,24.571 14.04,0 23.87,-10.879 23.87,-24.571 V 108.09 c 0,-38.258 24.57,-61.7697 57.91,-61.7697 33.34,0 57.9,23.5117 57.9,61.7697 v 120.73 c 0,13.692 10.53,24.571 23.87,24.571 14.04,0 24.21,-10.879 24.21,-24.571 V 109.84"
         inkscape:connector-curvature="0" /><path
         id="path114"
         style="fill:#5db9e8;fill-opacity:1;fill-rule:nonzero;stroke:none"
         d="m 5090.01,204.949 h -56.15 c -13.69,0 -24.57,10.531 -24.57,23.512 0,13.699 10.88,23.519 24.57,23.519 h 160.38 c 13.69,0 24.57,-9.82 24.57,-23.519 0,-12.981 -11.58,-23.512 -24.57,-23.512 h -56.15 V 27.3711 c 0,-13.6914 -10.17,-24.57032 -23.51,-24.57032 -13.33,0 -24.57,11.23052 -24.57,24.57032 V 204.949"
         inkscape:connector-curvature="0" /><path
         id="path116"
         style="fill:#5db9e8;fill-opacity:1;fill-rule:nonzero;stroke:none"
         d="m 5411.47,251.98 c 12.99,0 23.16,-9.82 23.16,-22.808 0,-12.293 -10.88,-23.172 -23.16,-23.172 h -102.48 v -55.449 h 98.27 c 11.93,0 21.76,-9.121 21.76,-21.75 0,-11.59 -10.18,-22.11 -21.76,-22.11 h -98.27 V 50.1797 h 103.18 c 12.29,0 23.17,-10.8789 23.17,-22.8086 0,-12.9922 -10.18,-23.16016 -23.17,-23.16016 h -116.51 c -22.46,0 -34.75,15.78906 -34.75,34.73826 V 217.59 c 0,18.601 12.29,34.39 34.75,34.39 h 115.81"
         inkscape:connector-curvature="0" /></g></g></svg>